<svg xmlns="http://www.w3.org/2000/svg" viewBox="0 0 32 32" width="32" height="32">
  <path d="M16 2C13 2 11.5 4 10.5 6C9.5 4 8 3.5 6.5 3.5C6.5 7.5 7.5 11 9 13.5C10.5 15.5 11 18.5 11.5 21.5C12 24.5 12.5 29 14 29C15.2 29 15.4 25.5 15.6 23C15.8 20.5 15.9 19 16 19C16.1 19 16.2 20.5 16.4 23C16.6 25.5 16.8 29 18 29C19.5 29 20 24.5 20.5 21.5C21 18.5 21.5 15.5 23 13.5C24.5 11 25.5 7.5 25.5 3.5C24 3.5 22.5 4 21.5 6C20.5 4 19 2 16 2Z" fill="#1a1a1a" stroke="#1a1a1a" stroke-width="0.5" stroke-linejoin="round"/>
</svg>
